HIERARCHY
ROOT Hips
{
  OFFSET 0.0903693 103.806 1.49371
  CHANNELS 6 Xposition Yposition Zposition Zrotation Xrotation Yrotation
  JOINT Spine
  {
    OFFSET 0 10.1816 0.1315
    CHANNELS 6 Xposition Yposition Zposition Zrotation Xrotation Yrotation
    JOINT Spine1
    {
      OFFSET 0 10.0835 -1.0008
      CHANNELS 6 Xposition Yposition Zposition Zrotation Xrotation Yrotation
      JOINT Spine2
      {
        OFFSET 0 9.1 -1.3734
        CHANNELS 6 Xposition Yposition Zposition Zrotation Xrotation Yrotation
        JOINT Neck
        {
          OFFSET 0 16.6717 -2.5162
          CHANNELS 6 Xposition Yposition Zposition Zrotation Xrotation Yrotation
          JOINT Head
          {
            OFFSET 0 9.6179 1.685
            CHANNELS 6 Xposition Yposition Zposition Zrotation Xrotation Yrotation
            JOINT HeadTop_End
            {
              OFFSET 0 17.8152 2.585
              CHANNELS 6 Xposition Yposition Zposition Zrotation Xrotation Yrotation
              End Site
              {
                OFFSET 0 0 0
              }
            }
            JOINT LeftEye
            {
              OFFSET 3.0676 6.4095 9.2836
              CHANNELS 6 Xposition Yposition Zposition Zrotation Xrotation Yrotation
              End Site
              {
                OFFSET 0 0 0
              }
            }
            JOINT RightEye
            {
              OFFSET -3.0676 6.4095 9.2835
              CHANNELS 6 Xposition Yposition Zposition Zrotation Xrotation Yrotation
              End Site
              {
                OFFSET 0 0 0
              }
            }
          }
        }
        JOINT LeftShoulder
        {
          OFFSET 4.5704 10.946 -2.628
          CHANNELS 6 Xposition Yposition Zposition Zrotation Xrotation Yrotation
          JOINT LeftArm
          {
            OFFSET 10.5924 -0.5246 -2.2321
            CHANNELS 6 Xposition Yposition Zposition Zrotation Xrotation Yrotation
            JOINT LeftForeArm
            {
              OFFSET 27.8415 -0.0001 0
              CHANNELS 6 Xposition Yposition Zposition Zrotation Xrotation Yrotation
              JOINT LeftHand
              {
                OFFSET 28.3288 0 0
                CHANNELS 6 Xposition Yposition Zposition Zrotation Xrotation Yrotation
                JOINT LeftHandThumb1
                {
                  OFFSET 2.4661 -1.575 2.6824
                  CHANNELS 6 Xposition Yposition Zposition Zrotation Xrotation Yrotation
                  JOINT LeftHandThumb2
                  {
                    OFFSET 3.2298 -1.8647 1.8647
                    CHANNELS 6 Xposition Yposition Zposition Zrotation Xrotation Yrotation
                    JOINT LeftHandThumb3
                    {
                      OFFSET 2.6526 -1.5315 1.5315
                      CHANNELS 6 Xposition Yposition Zposition Zrotation Xrotation Yrotation
                      End Site
                      {
                        OFFSET 1.9546 -1.1285 1.1285
                      }
                    }
                  }
                }
                JOINT LeftHandIndex1
                {
                  OFFSET 9.1093 -0.5171 2.2601
                  CHANNELS 6 Xposition Yposition Zposition Zrotation Xrotation Yrotation
                  JOINT LeftHandIndex2
                  {
                    OFFSET 3.6764 0 0
                    CHANNELS 6 Xposition Yposition Zposition Zrotation Xrotation Yrotation
                    JOINT LeftHandIndex3
                    {
                      OFFSET 2.8831 0 0
                      CHANNELS 6 Xposition Yposition Zposition Zrotation Xrotation Yrotation
                      End Site
                      {
                        OFFSET 2.3927 0 0
                      }
                    }
                  }
                }
                JOINT LeftHandMiddle1
                {
                  OFFSET 9.5334 0 0
                  CHANNELS 6 Xposition Yposition Zposition Zrotation Xrotation Yrotation
                  JOINT LeftHandMiddle2
                  {
                    OFFSET 3.6982 0 0
                    CHANNELS 6 Xposition Yposition Zposition Zrotation Xrotation Yrotation
                    JOINT LeftHandMiddle3
                    {
                      OFFSET 2.9509 0 0
                      CHANNELS 6 Xposition Yposition Zposition Zrotation Xrotation Yrotation
                      End Site
                      {
                        OFFSET 2.8339 0 0
                      }
                    }
                  }
                }
                JOINT LeftHandRing1
                {
                  OFFSET 9.1045 -0.0439 -1.8651
                  CHANNELS 6 Xposition Yposition Zposition Zrotation Xrotation Yrotation
                  JOINT LeftHandRing2
                  {
                    OFFSET 3.154 0 0
                    CHANNELS 6 Xposition Yposition Zposition Zrotation Xrotation Yrotation
                    JOINT LeftHandRing3
                    {
                      OFFSET 2.9377 0 0
                      CHANNELS 6 Xposition Yposition Zposition Zrotation Xrotation Yrotation
                      End Site
                      {
                        OFFSET 2.6475 0 0
                      }
                    }
                  }
                }
                JOINT LeftHandPinky1
                {
                  OFFSET 8.0778 -0.4887 -3.8061
                  CHANNELS 6 Xposition Yposition Zposition Zrotation Xrotation Yrotation
                  JOINT LeftHandPinky2
                  {
                    OFFSET 3.6 0 0
                    CHANNELS 6 Xposition Yposition Zposition Zrotation Xrotation Yrotation
                    JOINT LeftHandPinky3
                    {
                      OFFSET 2.1142 0 0
                      CHANNELS 6 Xposition Yposition Zposition Zrotation Xrotation Yrotation
                      End Site
                      {
                        OFFSET 1.9757 0 0
                      }
                    }
                  }
                }
              }
            }
          }
        }
        JOINT RightShoulder
        {
          OFFSET -4.57 10.9462 -2.628
          CHANNELS 6 Xposition Yposition Zposition Zrotation Xrotation Yrotation
          JOINT RightArm
          {
            OFFSET -10.5928 -0.5248 -2.2321
            CHANNELS 6 Xposition Yposition Zposition Zrotation Xrotation Yrotation
            JOINT RightForeArm
            {
              OFFSET -27.8415 0 0
              CHANNELS 6 Xposition Yposition Zposition Zrotation Xrotation Yrotation
              JOINT RightHand
              {
                OFFSET -28.3288 0 0.0001
                CHANNELS 6 Xposition Yposition Zposition Zrotation Xrotation Yrotation
                JOINT RightHandPinky1
                {
                  OFFSET -8.0767 -0.4885 -3.806
                  CHANNELS 6 Xposition Yposition Zposition Zrotation Xrotation Yrotation
                  JOINT RightHandPinky2
                  {
                    OFFSET -3.6 0 0.0001
                    CHANNELS 6 Xposition Yposition Zposition Zrotation Xrotation Yrotation
                    JOINT RightHandPinky3
                    {
                      OFFSET -2.1142 0 0
                      CHANNELS 6 Xposition Yposition Zposition Zrotation Xrotation Yrotation
                      End Site
                      {
                        OFFSET -1.9757 0 0
                      }
                    }
                  }
                }
                JOINT RightHandRing1
                {
                  OFFSET -9.1036 -0.0439 -1.8651
                  CHANNELS 6 Xposition Yposition Zposition Zrotation Xrotation Yrotation
                  JOINT RightHandRing2
                  {
                    OFFSET -3.154 0 0
                    CHANNELS 6 Xposition Yposition Zposition Zrotation Xrotation Yrotation
                    JOINT RightHandRing3
                    {
                      OFFSET -2.9377 0 0
                      CHANNELS 6 Xposition Yposition Zposition Zrotation Xrotation Yrotation
                      End Site
                      {
                        OFFSET -2.6475 0 0
                      }
                    }
                  }
                }
                JOINT RightHandMiddle1
                {
                  OFFSET -9.5325 0 0
                  CHANNELS 6 Xposition Yposition Zposition Zrotation Xrotation Yrotation
                  JOINT RightHandMiddle2
                  {
                    OFFSET -3.6982 0 0
                    CHANNELS 6 Xposition Yposition Zposition Zrotation Xrotation Yrotation
                    JOINT RightHandMiddle3
                    {
                      OFFSET -2.9509 0 0
                      CHANNELS 6 Xposition Yposition Zposition Zrotation Xrotation Yrotation
                      End Site
                      {
                        OFFSET -2.8339 0 0.0001
                      }
                    }
                  }
                }
                JOINT RightHandIndex1
                {
                  OFFSET -9.1083 -0.5168 2.2601
                  CHANNELS 6 Xposition Yposition Zposition Zrotation Xrotation Yrotation
                  JOINT RightHandIndex2
                  {
                    OFFSET -3.6764 0 0
                    CHANNELS 6 Xposition Yposition Zposition Zrotation Xrotation Yrotation
                    JOINT RightHandIndex3
                    {
                      OFFSET -2.8831 0 0
                      CHANNELS 6 Xposition Yposition Zposition Zrotation Xrotation Yrotation
                      End Site
                      {
                        OFFSET -2.3927 0 0
                      }
                    }
                  }
                }
                JOINT RightHandThumb1
                {
                  OFFSET -2.4648 -1.5727 2.6826
                  CHANNELS 6 Xposition Yposition Zposition Zrotation Xrotation Yrotation
                  JOINT RightHandThumb2
                  {
                    OFFSET -3.2298 -1.8647 1.8647
                    CHANNELS 6 Xposition Yposition Zposition Zrotation Xrotation Yrotation
                    JOINT RightHandThumb3
                    {
                      OFFSET -2.6526 -1.5314 1.5314
                      CHANNELS 6 Xposition Yposition Zposition Zrotation Xrotation Yrotation
                      End Site
                      {
                        OFFSET -1.9546 -1.1285 1.1285
                      }
                    }
                  }
                }
              }
            }
          }
        }
      }
    }
  }
  JOINT LeftUpLeg
  {
    OFFSET 8.2078 -6.7517 -1.5996
    CHANNELS 6 Xposition Yposition Zposition Zrotation Xrotation Yrotation
    JOINT LeftLeg
    {
      OFFSET 0 -44.3705 0.2846
      CHANNELS 6 Xposition Yposition Zposition Zrotation Xrotation Yrotation
      JOINT LeftFoot
      {
        OFFSET 0 -44.4279 -2.9822
        CHANNELS 6 Xposition Yposition Zposition Zrotation Xrotation Yrotation
        JOINT LeftToeBase
        {
          OFFSET 0 -8.7287 10.7106
          CHANNELS 6 Xposition Yposition Zposition Zrotation Xrotation Yrotation
          End Site
          {
            OFFSET 0 -0.0007 9.2781
          }
        }
      }
    }
  }
  JOINT RightUpLeg
  {
    OFFSET -8.2078 -6.7517 -1.5996
    CHANNELS 6 Xposition Yposition Zposition Zrotation Xrotation Yrotation
    JOINT RightLeg
    {
      OFFSET 0 -44.3705 0.2862
      CHANNELS 6 Xposition Yposition Zposition Zrotation Xrotation Yrotation
      JOINT RightFoot
      {
        OFFSET 0 -44.4277 -2.9838
        CHANNELS 6 Xposition Yposition Zposition Zrotation Xrotation Yrotation
        JOINT RightToeBase
        {
          OFFSET 0 -8.7287 10.7106
          CHANNELS 6 Xposition Yposition Zposition Zrotation Xrotation Yrotation
          End Site
          {
            OFFSET 0 -0.0007 9.2781
          }
        }
      }
    }
  }
}
MOTION
Frames:	4
Frame Time:	0.0333333
0.0903693 103.806 1.49371 -1.53639 -0.915007 -0.8876 0 10.1816 0.1315 -1.50547 1.07351 -0.218714 0 10.0835 -1.0008 -0.0998605 -3.8423 0.0670881 0 9.1 -1.3734 -0.101564 -3.84224 0.0725489 8.88178e-016 16.6717 -2.5162 -0.43933 -2.68447 -0.315694 -1.77636e-015 9.6179 1.685 -9.51127 -7.2144 -6.36267 0 17.8152 2.585 0 0 -0 3.0676 6.4095 9.2836 0 0 -0 -3.0676 6.4095 9.2835 0 0 -0 4.5704 10.946 -2.628 -19.4575 1.57524 4.3733 10.5924 -0.5246 -2.2321 -57.5246 21.9328 2.06378 27.8415 -0.0001 0 -0.000219908 -8.88219e-007 -8.82166 28.3288 0 4.44089e-016 -1.60188 0.336939 -1.97192 2.4661 -1.575 2.6824 21.9968 -5.47274 -2.16367 3.2298 -1.8647 1.8647 -14.2961 14.4943 17.4387 2.6526 -1.5315 1.5315 16.1346 -22.1334 -8.65601 9.1093 -0.5171 2.2601 -19.3164 -1.00784 -2.81556 3.6764 3.55271e-015 0 -32.2786 -0.903988 3.12318 2.8831 -3.55271e-015 8.88178e-016 -19.169 -0.324191 1.91971 9.5334 0 -4.44089e-016 -19.9029 -1.09392 3.62941 3.6982 -3.55271e-015 -6.66134e-016 -30.199 -0.793826 2.94154 2.9509 3.55271e-015 0 -25.5637 -0.572498 2.52318 9.1045 -0.0439 -1.8651 -27.4928 -1.68972 7.56616 3.154 -6.66134e-016 1.77636e-015 -33.9223 -0.995695 3.26388 2.9377 7.10543e-015 -1.77636e-015 -35.5678 -1.09151 3.40206 8.0778 -0.4887 -3.8061 -28.6032 -10.2962 5.53153 3.6 -2.22045e-015 0 -32.6822 -0.926131 3.15797 2.1142 0 0 -26.9794 -0.636489 2.65283 -4.57 10.9462 -2.628 13.6558 1.59112 -4.84229 -10.5928 -0.5248 -2.2321 68.0879 -3.71984 -5.6064 -27.8415 7.10543e-015 0 -2.07807e-005 1.26998e-006 14.3912 -28.3288 -1.42109e-014 0.0001 -0.747349 11.9269 14.6506 -8.0767 -0.4885 -3.806 27.868 -16.5868 -9.91178 -3.6 -4.44089e-015 0.0001 29.6044 -0.605253 -2.29174 -2.1142 7.10543e-015 0 23.8964 -0.397903 -1.88018 -9.1036 -0.0439 -1.8651 31.4633 -1.8352 -3.83953 -3.154 8.88178e-016 -3.55271e-015 36.1411 -0.893498 -2.73797 -2.9377 0 0 23.7681 -0.393705 -1.87067 -9.5325 7.10543e-015 -3.55271e-015 24.4899 -1.30175 1.29339 -3.6982 -3.55271e-015 -7.10543e-015 34.7584 -0.828484 -2.64664 -2.9509 0 -3.55271e-015 27.9689 -0.542203 -2.17896 -9.1083 -0.5168 2.2601 11.9946 -0.474528 5.60836 -3.6764 -3.55271e-015 -7.10543e-015 39.3954 -1.0551 -2.94657 -2.8831 0 0 27.4654 -0.523226 -2.14081 -2.4648 -1.5727 2.6826 -14.1065 -4.0764 2.0871 -3.2298 -1.8647 1.8647 5.48873 15.9724 -16.2509 -2.6526 -1.5314 1.5314 -10.8536 -21.8342 11.9685 8.2078 -6.7517 -1.5996 4.38642 -5.16839 7.90577 -1.77636e-015 -44.3705 0.2846 2.13228 16.4262 1.71437 1.77636e-015 -44.4279 -2.9822 -6.63923 -8.44737 -0.183309 0 -8.7287 10.7106 4.26469e-007 -3.93038e-006 1.01883e-008 -8.2078 -6.7517 -1.5996 -4.74635 -0.297419 -11.1868 3.55271e-015 -44.3705 0.2862 -1.80425 10.4649 -6.3313 -3.55271e-015 -44.4277 -2.9838 8.52015 -4.23067 -0.102622 0 -8.7287 10.7106 3.1978e-007 -5.99354e-006 1.56985e-008 
0.10624 103.77 1.68577 -1.70309 -1.04694 -0.535767 -4.44089e-016 10.1816 0.1315 -1.34584 0.939927 -0.385338 0 10.0835 -1.0008 -0.0359024 -3.73871 0.0245328 -8.88178e-016 9.1 -1.3734 -0.0377445 -3.73851 0.0295276 -8.88178e-016 16.6717 -2.5162 -0.41067 -2.56057 -0.338157 0 9.6179 1.685 -9.89325 -7.46619 -6.53275 -3.55271e-015 17.8152 2.585 2.38542e-015 0 -3.18055e-015 3.0676 6.4095 9.2836 2.38542e-015 0 -3.18055e-015 -3.0676 6.4095 9.2835 2.38542e-015 0 -3.18055e-015 4.5704 10.946 -2.628 -19.8376 1.62877 4.19903 10.5924 -0.5246 -2.2321 -56.631 20.7179 0.00622222 27.8415 -0.0001 0 -0.000207385 -2.76776e-006 -7.09336 28.3288 -1.42109e-014 -1.33227e-015 -1.98981 1.92176 -0.562413 2.4661 -1.575 2.6824 21.9968 -5.47274 -2.16367 3.2298 -1.8647 1.8647 -14.119 14.4631 17.0561 2.6526 -1.5315 1.5315 16.0056 -22.0115 -8.523 9.1093 -0.5171 2.2601 -18.6092 -0.81845 -2.64836 3.6764 1.77636e-015 1.77636e-015 -31.962 -0.886794 3.0958 2.8831 -7.10543e-015 -4.44089e-016 -19.5732 -0.337875 1.95864 9.5334 -7.10543e-015 -3.33067e-015 -19.2978 -1.04959 3.79711 3.6982 0 -1.33227e-015 -29.8897 -0.778005 2.91418 2.9509 0 0 -25.5132 -0.570275 2.51852 9.1045 -0.0439 -1.8651 -26.8048 -1.63071 7.75989 3.154 -1.11022e-015 0 -32.6829 -0.926168 3.15804 2.9377 -7.10543e-015 -1.77636e-015 -35.5004 -1.08751 3.39644 8.0778 -0.4887 -3.8061 -28.1009 -10.232 5.61788 3.6 -2.22045e-016 0 -32.3453 -0.907629 3.12894 2.1142 7.10543e-015 1.77636e-015 -26.619 -0.619891 2.61996 -4.57 10.9462 -2.628 13.6452 1.58021 -4.93678 -10.5928 -0.5248 -2.2321 67.8631 -3.18867 -5.42553 -27.8415 7.10543e-015 0 1.5455e-005 6.94693e-007 14.7152 -28.3288 7.10543e-015 0.0001 -0.677845 11.5015 14.9667 -8.0767 -0.4885 -3.806 28.7335 -16.6554 -9.46942 -3.6 -1.27676e-015 0.0001 29.2193 -0.589933 -2.26454 -2.1142 0 0 23.8114 -0.395117 -1.87388 -9.1036 -0.0439 -1.8651 31.7704 -1.85859 -3.58451 -3.154 1.77636e-015 0 36.0067 -0.887082 -2.72917 -2.9377 -7.10543e-015 0 23.8497 -0.396375 -1.87672 -9.5325 1.42109e-014 0 24.8629 -1.32607 1.53065 -3.6982 -1.77636e-015 0 34.6414 -0.823086 -2.63885 -2.9509 3.55271e-015 -7.10543e-015 28.1673 -0.549759 -2.19316 -9.1083 -0.5168 2.2601 12.1653 -0.48033 5.71574 -3.6764 3.55271e-015 7.10543e-015 39.4865 -1.0598 -2.95226 -2.8831 0 0 27.7386 -0.533484 -2.16044 -2.4648 -1.5727 2.6826 -14.1065 -4.0764 2.0871 -3.2298 -1.8647 1.8647 5.95911 16.0422 -17.2484 -2.6526 -1.5314 1.5314 -11.2732 -21.7663 12.5322 8.2078 -6.7517 -1.5996 4.44969 -5.12113 7.77452 1.77636e-015 -44.3705 0.2846 2.41128 16.7079 1.38896 -1.77636e-015 -44.4279 -2.9822 -6.64461 -8.59109 -0.197361 0 -8.7287 10.7106 6.75295e-007 -0.16752 -3.14808e-007 -8.2078 -6.7517 -1.5996 -4.6194 0.227483 -11.3627 0 -44.3705 0.2862 -1.64095 10.1159 -6.52134 0 -44.4277 -2.9838 8.63668 -4.25321 -0.0896516 -3.55271e-015 -8.7287 10.7106 6.45955e-007 -0.0631155 1.01332e-005 
0.127158 103.68 1.90419 -1.79628 -1.23231 -0.267439 -4.44089e-016 10.1816 0.1315 -1.28111 0.960789 -0.57017 8.88178e-016 10.0835 -1.0008 0.0156944 -3.62482 -0.02552 1.77636e-015 9.1 -1.3734 0.0137237 -3.62453 -0.0209836 0 16.6717 -2.5162 -0.379433 -2.42423 -0.354687 8.88178e-016 9.6179 1.685 -10.5099 -7.75017 -6.60686 3.55271e-015 17.8152 2.585 -2.78299e-015 6.36111e-015 1.59028e-015 3.0676 6.4095 9.2836 -2.78299e-015 6.36111e-015 1.59028e-015 -3.0676 6.4095 9.2835 -2.78299e-015 6.36111e-015 1.59028e-015 4.5704 10.946 -2.628 -20.3369 1.71399 3.92806 10.5924 -0.5246 -2.2321 -55.3704 19.7325 -2.35135 27.8415 -0.0001 0 -0.000205042 2.47884e-007 -5.61039 28.3288 1.42109e-014 8.88178e-016 -2.56644 5.05379 1.94446 2.4661 -1.575 2.6824 21.9968 -5.47274 -2.16367 3.2298 -1.8647 1.8647 -14.0403 14.4481 16.8854 2.6526 -1.5315 1.5315 16.2481 -22.2143 -9.00586 9.1093 -0.5171 2.2601 -17.8565 -0.694314 -2.59183 3.6764 0 8.88178e-016 -31.468 -0.860258 3.05285 2.8831 0 8.88178e-016 -19.6946 -0.342042 1.97031 9.5334 -7.10543e-015 -6.66134e-016 -18.7466 -1.0096 3.93769 3.6982 0 -1.77636e-015 -29.5376 -0.760176 2.88294 2.9509 3.55271e-015 0 -25.6051 -0.574322 2.52699 9.1045 -0.0439 -1.8651 -26.2961 -1.58798 7.79785 3.154 -2.22045e-015 -1.77636e-015 -31.8386 -0.880135 3.08509 2.9377 0 3.55271e-015 -35.5904 -1.09285 3.40392 8.0778 -0.4887 -3.8061 -27.5995 -10.1872 5.58859 3.6 -1.33227e-015 0 -31.982 -0.887867 3.09752 2.1142 7.10543e-015 -3.55271e-015 -26.4711 -0.613147 2.60646 -4.57 10.9462 -2.628 13.938 1.57577 -5.00961 -10.5928 -0.5248 -2.2321 67.3832 -3.33463 -4.44871 -27.8415 0 -1.77636e-015 3.17623e-006 2.99922e-006 13.4809 -28.3288 0 0.0001 -0.704447 10.8686 15.4134 -8.0767 -0.4885 -3.806 28.9816 -16.6741 -9.48531 -3.6 2.66454e-015 0.0001 28.7069 -0.56983 -2.22819 -2.1142 0 0 23.611 -0.388586 -1.85902 -9.1036 -0.0439 -1.8651 31.2425 -1.81813 -3.68287 -3.154 -2.66454e-015 0 35.3737 -0.857145 -2.68747 -2.9377 0 0 23.9217 -0.39873 -1.88205 -9.5325 7.10543e-015 0 24.2569 -1.28448 1.42884 -3.6982 -1.77636e-015 0 34.4694 -0.815183 -2.62736 -2.9509 3.55271e-015 -7.10543e-015 28.2494 -0.552915 -2.19902 -9.1083 -0.5168 2.2601 11.9993 -0.460527 5.50199 -3.6764 0 7.10543e-015 39.3299 -1.05172 -2.94245 -2.8831 3.55271e-015 -7.10543e-015 28.025 -0.54434 -2.18096 -2.4648 -1.5727 2.6826 -14.1065 -4.0764 2.0871 -3.2298 -1.8647 1.8647 6.00894 16.0495 -17.3533 -2.6526 -1.5314 1.5314 -11.4424 -21.771 12.7778 8.2078 -6.7517 -1.5996 4.49621 -5.1145 7.79743 1.77636e-015 -44.3705 0.2846 2.60758 17.233 0.951715 0 -44.4279 -2.9822 -6.5973 -8.81171 -0.200582 0 -8.7287 10.7106 -7.49727e-007 -0.513226 -6.23532e-006 -8.2078 -6.7517 -1.5996 -4.79595 -0.284114 -11.4848 0 -44.3705 0.2862 -1.53283 11.8187 -6.53784 0 -44.4277 -2.9838 8.96506 -4.28122 -0.105368 -3.55271e-015 -8.7287 10.7106 -5.66474e-008 -1.3275 7.14439e-007 
0.125696 103.64 2.12139 -1.83234 -1.44475 -0.119502 8.88178e-016 10.1816 0.1315 -1.28254 1.18031 -0.868625 8.88178e-016 10.0835 -1.0008 0.0616579 -3.5127 -0.108402 0 9.1 -1.3734 0.0597743 -3.51236 -0.104282 -1.77636e-015 16.6717 -2.5162 -0.396267 -2.33045 -0.33576 0 9.6179 1.685 -11.3577 -7.86431 -6.46151 0 17.8152 2.585 3.97569e-016 3.18055e-015 3.18055e-015 3.0676 6.4095 9.2836 3.97569e-016 3.18055e-015 3.18055e-015 -3.0676 6.4095 9.2835 3.97569e-016 3.18055e-015 3.18055e-015 4.5704 10.946 -2.628 -20.7772 1.8801 3.3022 10.5924 -0.5246 -2.2321 -53.6756 20.4707 -4.44503 27.8415 -0.0001 1.77636e-015 -0.000222068 3.82343e-007 -5.39269 28.3288 -7.10543e-015 0 -4.01359 8.47188 4.86779 2.4661 -1.575 2.6824 21.9968 -5.47274 -2.16367 3.2298 -1.8647 1.8647 -14.106 14.4602 17.0276 2.6526 -1.5315 1.5315 16.6543 -22.5434 -9.72199 9.1093 -0.5171 2.2601 -17.3693 -0.656969 -2.61989 3.6764 0 -1.77636e-015 -31.1234 -0.841976 3.02277 2.8831 3.55271e-015 0 -19.7102 -0.342575 1.9718 9.5334 0 0 -18.4988 -0.991753 4.049 3.6982 1.77636e-015 0 -29.314 -0.748951 2.86305 2.9509 7.10543e-015 -1.77636e-015 -25.7587 -0.581121 2.54112 9.1045 -0.0439 -1.8651 -26.1397 -1.57534 7.72975 3.154 -4.44089e-015 -3.55271e-015 -31.7387 -0.874752 3.07642 2.9377 0 0 -35.7688 -1.10349 3.41874 8.0778 -0.4887 -3.8061 -27.3626 -10.1744 5.52405 3.6 3.9968e-015 -3.55271e-015 -31.7742 -0.876658 3.07949 2.1142 7.10543e-015 3.55271e-015 -26.5898 -0.61856 2.6173 -4.57 10.9462 -2.628 14.3066 1.59928 -4.86881 -10.5928 -0.5248 -2.2321 66.9988 -4.17955 -2.76253 -27.8415 0 2.66454e-015 1.11544e-005 -2.00427e-006 10.9812 -28.3288 0 0.0001 -0.884264 10.8256 15.1968 -8.0767 -0.4885 -3.806 28.7426 -16.5674 -9.91599 -3.6 2.13718e-015 0.0001 28.3871 -0.557457 -2.20542 -2.1142 7.10543e-015 0 23.3922 -0.381517 -1.84275 -9.1036 -0.0439 -1.8651 30.3793 -1.75254 -3.97202 -3.154 -8.88178e-016 0 34.5333 -0.81811 -2.63163 -2.9377 7.10543e-015 3.55271e-015 23.9202 -0.398681 -1.88194 -9.5325 7.10543e-015 -7.10543e-015 23.2126 -1.2142 1.17729 -3.6982 0 7.10543e-015 34.3215 -0.808406 -2.61746 -2.9509 0 0 28.2422 -0.55264 -2.1985 -9.1083 -0.5168 2.2601 11.5078 -0.422283 5.23253 -3.6764 0 0 38.971 -1.03334 -2.91988 -2.8831 -5.32907e-015 -7.10543e-015 28.1825 -0.550349 -2.19222 -2.4648 -1.5727 2.6826 -14.1065 -4.0764 2.0871 -3.2298 -1.8647 1.8647 5.67568 15.9833 -16.6576 -2.6526 -1.5314 1.5314 -11.4538 -21.8205 12.8564 8.2078 -6.7517 -1.5996 4.55477 -4.97484 7.94637 0 -44.3705 0.2846 2.67697 17.5136 0.562902 1.77636e-015 -44.4279 -2.9822 -6.54652 -8.55708 -0.152539 1.77636e-015 -8.7287 10.7106 -3.34648e-007 -1.45839 1.41187e-006 -8.2078 -6.7517 -1.5996 -5.13141 -1.27055 -11.5735 3.55271e-015 -44.3705 0.2862 -1.45638 14.2914 -6.42253 3.55271e-015 -44.4277 -2.9838 9.39764 -3.59029 -0.2359 0 -8.7287 10.7106 -1.87316e-006 -3.55532 -4.99531e-006 
